<svg width="1080" height="1112" viewBox="0 0 1080 1112" fill="none" xmlns="http://www.w3.org/2000/svg">
<circle cx="553" cy="540" r="450" fill="black"/>
<path d="M719.5 476.625L658.375 526L719.5 575.375" stroke="#1CF040" stroke-width="30" stroke-linecap="round" stroke-linejoin="round"/>
<path d="M882.5 476.625L943.625 526L882.5 575.375" stroke="#1CF040" stroke-width="30" stroke-linecap="round" stroke-linejoin="round"/>
<path d="M842.208 419.031L760.708 636.281" stroke="#1CF040" stroke-width="30" stroke-linecap="round" stroke-linejoin="round"/>
<path d="M907.435 783.466C857.169 856.643 785.485 912.468 702.224 943.277C618.964 974.086 528.208 978.368 442.416 955.537C356.624 932.706 280.002 883.88 223.068 815.762C166.134 747.644 131.679 663.574 124.434 575.092C117.189 486.61 137.509 398.054 182.603 321.582C227.698 245.11 295.357 184.47 376.292 147.987C457.228 111.504 547.471 100.966 634.635 117.82C721.798 134.674 801.608 178.095 863.109 242.12L683.357 414.783C657.505 387.87 623.956 369.618 587.316 362.533C550.676 355.448 512.741 359.878 478.719 375.214C444.697 390.55 416.256 416.04 397.3 448.186C378.344 480.332 369.803 517.557 372.849 554.751C375.894 591.945 390.377 627.285 414.31 655.919C438.243 684.553 470.452 705.078 506.515 714.675C542.578 724.272 580.728 722.472 615.728 709.521C650.727 696.57 680.86 673.104 701.99 642.343L907.435 783.466Z" fill="white"/>
</svg>
